<svg width="32" height="32" viewBox="0 0 32 32" fill="none" xmlns="http://www.w3.org/2000/svg">
<path d="M0 5C0 2.23858 2.23858 0 5 0H27C29.7614 0 32 2.23858 32 5V27C32 29.7614 29.7614 32 27 32H5C2.23858 32 0 29.7614 0 27V5Z" fill="#1A1F16"/>
<path d="M12.875 23.5C13.5654 23.5 14.125 22.9404 14.125 22.25C14.125 21.5596 13.5654 21 12.875 21C12.1846 21 11.625 21.5596 11.625 22.25C11.625 22.9404 12.1846 23.5 12.875 23.5Z" fill="white"/>
<path d="M21.625 23.5C22.3154 23.5 22.875 22.9404 22.875 22.25C22.875 21.5596 22.3154 21 21.625 21C20.9346 21 20.375 21.5596 20.375 22.25C20.375 22.9404 20.9346 23.5 21.625 23.5Z" fill="white"/>
<path d="M23.8437 10.718C23.7559 10.6106 23.6453 10.5241 23.5199 10.4647C23.3945 10.4054 23.2575 10.3748 23.1187 10.375H11.2301L10.9906 9.01641C10.9651 8.87169 10.8894 8.7406 10.7768 8.64616C10.6642 8.55172 10.522 8.49997 10.375 8.5H7.875C7.70924 8.5 7.55027 8.56585 7.43306 8.68306C7.31585 8.80027 7.25 8.95924 7.25 9.125C7.25 9.29076 7.31585 9.44973 7.43306 9.56694C7.55027 9.68415 7.70924 9.75 7.875 9.75H9.85078L11.6344 19.8586C11.6599 20.0033 11.7356 20.1344 11.8482 20.2288C11.9608 20.3233 12.103 20.375 12.25 20.375H22.25C22.4158 20.375 22.5747 20.3092 22.6919 20.1919C22.8092 20.0747 22.875 19.9158 22.875 19.75C22.875 19.5842 22.8092 19.4253 22.6919 19.3081C22.5747 19.1908 22.4158 19.125 22.25 19.125H12.7742L12.5539 17.875H21.9938C22.2105 17.8747 22.4205 17.7996 22.5882 17.6623C22.7559 17.525 22.871 17.3339 22.9141 17.1215L24.0391 11.4965C24.0662 11.3604 24.0627 11.2199 24.0289 11.0853C23.9952 10.9506 23.9319 10.8252 23.8437 10.718V10.718Z" fill="white"/>
</svg>
