<svg width="35" height="34" viewBox="0 0 35 34" fill="none" xmlns="http://www.w3.org/2000/svg">
<path d="M0.858292 17C0.858292 9.48285 0.858292 5.72427 2.96389 3.21491C3.30067 2.81356 3.67185 2.44238 4.0732 2.1056C6.58256 0 10.3411 0 17.8583 0V0C25.3754 0 29.134 0 31.6434 2.1056C32.0447 2.44238 32.4159 2.81356 32.7527 3.21491C34.8583 5.72427 34.8583 9.48285 34.8583 17V17C34.8583 24.5172 34.8583 28.2757 32.7527 30.7851C32.4159 31.1864 32.0447 31.5576 31.6434 31.8944C29.134 34 25.3754 34 17.8583 34V34C10.3411 34 6.58256 34 4.0732 31.8944C3.67185 31.5576 3.30067 31.1864 2.96389 30.7851C0.858292 28.2757 0.858292 24.5172 0.858292 17V17Z" fill="#1A1F16"/>
<path d="M24.8424 13.9555C24.7381 13.8505 24.6139 13.7672 24.4772 13.7105C24.3405 13.6538 24.1938 13.6247 24.0458 13.625H21.7958V13.0625C21.7958 12.0182 21.3809 11.0167 20.6425 10.2783C19.9041 9.53984 18.9026 9.125 17.8583 9.125C16.814 9.125 15.8125 9.53984 15.0741 10.2783C14.3356 11.0167 13.9208 12.0182 13.9208 13.0625V13.625H11.6708C11.3724 13.625 11.0863 13.7435 10.8753 13.9545C10.6643 14.1655 10.5458 14.4516 10.5458 14.75V22.3438C10.5458 23.7148 11.7059 24.875 13.077 24.875H22.6395C23.3028 24.8752 23.9397 24.6159 24.4142 24.1525C24.653 23.9247 24.8432 23.6509 24.9732 23.3476C25.1032 23.0442 25.1704 22.7177 25.1708 22.3877V14.75C25.1712 14.6024 25.1425 14.4563 25.0861 14.3199C25.0297 14.1835 24.9469 14.0597 24.8424 13.9555V13.9555ZM20.1083 19.8125H18.4208V21.5C18.4208 21.6492 18.3615 21.7923 18.256 21.8977C18.1506 22.0032 18.0075 22.0625 17.8583 22.0625C17.7091 22.0625 17.566 22.0032 17.4605 21.8977C17.3551 21.7923 17.2958 21.6492 17.2958 21.5V19.8125H15.6083C15.4591 19.8125 15.316 19.7532 15.2105 19.6477C15.1051 19.5423 15.0458 19.3992 15.0458 19.25C15.0458 19.1008 15.1051 18.9577 15.2105 18.8523C15.316 18.7468 15.4591 18.6875 15.6083 18.6875H17.2958V17C17.2958 16.8508 17.3551 16.7077 17.4605 16.6023C17.566 16.4968 17.7091 16.4375 17.8583 16.4375C18.0075 16.4375 18.1506 16.4968 18.256 16.6023C18.3615 16.7077 18.4208 16.8508 18.4208 17V18.6875H20.1083C20.2575 18.6875 20.4006 18.7468 20.506 18.8523C20.6115 18.9577 20.6708 19.1008 20.6708 19.25C20.6708 19.3992 20.6115 19.5423 20.506 19.6477C20.4006 19.7532 20.2575 19.8125 20.1083 19.8125ZM20.6708 13.625H15.0458V13.0625C15.0458 12.3166 15.3421 11.6012 15.8696 11.0738C16.397 10.5463 17.1124 10.25 17.8583 10.25C18.6042 10.25 19.3196 10.5463 19.847 11.0738C20.3745 11.6012 20.6708 12.3166 20.6708 13.0625V13.625Z" fill="white"/>
</svg>
